<?xml version="1.0" standalone="no"?>
<!DOCTYPE svg PUBLIC "-//W3C//DTD SVG 20010904//EN"
 "http://www.w3.org/TR/2001/REC-SVG-20010904/DTD/svg10.dtd">
<svg version="1.0" xmlns="http://www.w3.org/2000/svg"
 width="2371.000000pt" height="617.000000pt" viewBox="0 0 2371.000000 617.000000"
 preserveAspectRatio="xMidYMid meet">

<g transform="translate(0.000000,617.000000) scale(0.100000,-0.100000)"
fill="#000000" stroke="none">
<path d="M1865 6093 c-481 -58 -877 -237 -1197 -542 -365 -347 -568 -826 -594
-1401 -8 -174 5 -288 47 -415 78 -233 199 -382 590 -723 168 -147 204 -183
248 -252 73 -113 139 -254 152 -324 14 -75 8 -120 -48 -351 -66 -275 -62 -377
17 -468 23 -26 39 -56 43 -81 14 -85 98 -175 195 -208 27 -9 210 -14 692 -18
360 -3 612 -6 559 -8 -465 -11 -1228 -58 -1261 -78 -4 -3 -8 -24 -8 -46 l0
-41 238 7 c267 8 848 33 962 41 202 15 327 28 347 36 19 7 23 16 23 49 l0 40
-62 1 c-61 1 -61 2 -22 9 59 12 110 35 154 70 42 33 90 119 90 160 0 16 12 37
29 54 45 43 72 116 73 195 1 88 -6 125 -54 311 -33 128 -41 173 -41 255 -2
115 11 152 112 330 50 89 79 123 284 334 339 348 434 468 528 666 80 166 94
230 93 430 -1 197 -20 347 -69 541 -200 787 -817 1321 -1645 1424 -78 9 -405
12 -475 3z m734 -448 c251 -39 510 -143 667 -268 137 -109 285 -335 329 -502
43 -165 26 -333 -49 -490 -113 -237 -347 -455 -760 -712 -94 -58 -236 -156
-316 -217 -237 -181 -352 -310 -395 -443 -17 -51 -16 -54 4 -95 12 -24 48 -73
81 -111 99 -112 151 -204 137 -241 -3 -7 -40 -23 -83 -36 -69 -20 -91 -22
-203 -17 -224 10 -386 70 -502 186 -88 88 -113 150 -107 271 6 123 57 227 187
378 79 92 310 300 446 402 72 53 211 157 309 230 483 359 632 609 536 894 -41
121 -122 197 -255 239 -104 33 -308 31 -460 -5 -268 -63 -542 -197 -780 -383
-81 -63 -242 -223 -283 -281 l-22 -32 78 -11 c149 -22 207 -72 207 -176 -1
-114 -85 -219 -233 -292 -76 -38 -77 -38 -197 -37 -103 0 -131 4 -200 28 -151
51 -310 168 -354 260 -64 130 15 325 247 615 106 132 199 229 326 338 338 290
741 472 1156 523 103 12 363 4 489 -15z m-386 -3445 c172 -25 304 -97 327
-178 21 -77 -60 -180 -216 -275 -99 -60 -155 -77 -247 -77 -153 0 -265 41
-351 129 -39 40 -47 55 -52 97 -14 114 84 232 241 291 67 25 181 30 298 13z"/>
<path d="M7175 5094 c-535 -72 -976 -339 -1254 -760 -172 -260 -279 -559 -322
-899 -16 -129 -16 -481 0 -610 43 -341 150 -639 322 -899 283 -428 724 -692
1272 -762 161 -20 481 -15 622 10 273 49 493 134 694 266 l94 62 179 -179 178
-178 145 145 c80 80 145 150 145 156 0 7 -79 88 -175 180 l-175 167 34 41
c196 241 337 603 388 996 16 124 15 489 -1 610 -58 431 -215 796 -465 1083
-278 317 -691 524 -1151 577 -123 14 -408 11 -530 -6z m610 -514 c432 -92 760
-397 905 -840 70 -213 85 -317 85 -610 0 -274 -10 -362 -61 -539 -48 -166
-162 -406 -192 -406 -6 0 -113 99 -238 219 l-226 219 -144 -144 c-79 -79 -144
-149 -144 -156 0 -7 6 -16 14 -20 8 -4 109 -102 226 -217 243 -240 235 -214
92 -289 -188 -99 -398 -147 -643 -147 -242 0 -415 37 -604 130 -143 70 -221
128 -335 247 -134 139 -221 284 -286 478 -67 201 -94 380 -94 625 0 499 138
876 421 1145 188 180 384 276 656 320 131 21 436 13 568 -15z"/>
<path d="M12740 4760 l0 -270 245 0 245 0 0 270 0 270 -245 0 -245 0 0 -270z"/>
<path d="M17517 4988 c-8 -24 -306 -855 -662 -1848 -356 -993 -655 -1829 -666
-1857 l-18 -53 272 0 272 0 170 486 c93 267 175 499 182 515 l12 29 725 0
c569 0 727 -3 733 -12 4 -7 86 -238 183 -513 l175 -500 272 -3 272 -2 -23 67
c-24 69 -1319 3683 -1331 3716 -7 16 -29 17 -280 17 l-273 0 -15 -42z m569
-1458 c152 -426 279 -783 282 -792 4 -17 -28 -18 -563 -18 -449 0 -566 3 -563
13 89 255 562 1576 564 1574 2 -2 128 -351 280 -777z"/>
<path d="M19920 3130 l0 -1900 270 0 270 0 0 664 0 664 478 4 c537 5 573 9
789 80 415 136 650 425 717 881 21 137 21 416 1 553 -41 273 -118 450 -264
606 -131 140 -315 242 -536 298 -186 47 -241 50 -1007 50 l-718 0 0 -1900z
m1511 1408 c260 -71 402 -210 471 -463 30 -111 33 -432 4 -540 -69 -265 -233
-420 -514 -487 -79 -19 -126 -21 -509 -25 l-423 -5 0 777 0 776 438 -3 c434
-4 438 -4 533 -30z"/>
<path d="M23030 3130 l0 -1900 260 0 260 0 0 1900 0 1900 -260 0 -260 0 0
-1900z"/>
<path d="M9860 3061 c0 -852 4 -957 41 -1135 46 -222 123 -373 258 -506 131
-130 286 -203 501 -235 189 -29 394 -12 553 45 134 49 234 120 327 232 l48 56
22 -121 c12 -67 24 -132 27 -144 5 -23 5 -23 224 -23 l219 0 0 1330 0 1330
-245 0 -245 0 0 -993 0 -993 -48 -59 c-131 -164 -401 -260 -655 -234 -244 25
-397 154 -477 406 -56 175 -60 245 -60 1099 l0 774 -245 0 -245 0 0 -829z"/>
<path d="M12740 2560 l0 -1330 245 0 245 0 0 1330 0 1330 -245 0 -245 0 0
-1330z"/>
<path d="M13770 3675 l0 -215 700 0 699 0 -732 -1102 c-403 -607 -736 -1109
-741 -1115 -6 -10 224 -13 1134 -13 l1140 0 -2 213 -3 212 -726 5 -726 5 465
700 c256 385 588 886 738 1113 l273 412 -1109 0 -1110 0 0 -215z"/>
<path d="M2440 1119 c-527 -21 -1007 -49 -1102 -65 -37 -6 -38 -8 -38 -50 l0
-44 73 0 c198 0 1142 44 1326 61 163 16 165 17 169 67 l3 42 -118 -2 c-65 0
-206 -5 -313 -9z"/>
<path d="M2525 943 c-684 -25 -1203 -58 -1224 -78 -7 -7 -5 -75 3 -82 9 -9
889 25 1236 47 157 11 308 28 322 36 4 3 8 23 8 45 l0 39 -132 -2 c-73 -1
-169 -3 -213 -5z"/>
<path d="M2380 759 c-627 -26 -1020 -52 -1066 -69 -19 -8 -24 -17 -24 -45 0
-22 6 -38 14 -41 38 -14 1266 42 1459 67 106 14 107 14 107 60 l0 39 -152 -2
c-84 0 -236 -5 -338 -9z"/>
<path d="M2625 589 c-796 -29 -1252 -57 -1311 -80 -20 -7 -24 -16 -24 -50 l0
-41 158 6 c86 4 276 11 422 16 542 21 964 49 981 67 4 4 9 26 11 48 2 29 -1
40 -12 41 -8 0 -109 -2 -225 -7z"/>
<path d="M2785 433 c-94 -16 -413 -39 -860 -63 -433 -23 -606 -38 -620 -51 -5
-5 -10 -35 -10 -66 l0 -57 35 -8 c177 -38 1487 -34 1527 5 2 2 2 60 1 128 l-3
124 -70 -12z"/>
</g>
</svg>
